<?xml version="1.0" encoding="UTF-8"?>
<!DOCTYPE svg PUBLIC "-//W3C//DTD SVG 1.1//EN" "http://www.w3.org/Graphics/SVG/1.1/DTD/svg11.dtd">
<!-- Creator: CorelDRAW -->
<svg xmlns="http://www.w3.org/2000/svg" xml:space="preserve" width="1.99999in" height="1.99999in" version="1.1" style="shape-rendering:geometricPrecision; text-rendering:geometricPrecision; image-rendering:optimizeQuality; fill-rule:evenodd; clip-rule:evenodd"
viewBox="0 0 2000 2000"
 xmlns:xlink="http://www.w3.org/1999/xlink">
 <defs>
  <style type="text/css">
   <![CDATA[
    .fil0 {fill:#2E2E30}
    .fil1 {fill:#E6E6E6}
    .fil2 {fill:#FF3131}
    .fil4 {fill:#FF9E5C}
    .fil3 {fill:#FFE4AF}
   ]]>
  </style>
 </defs>
 <g id="Layer_x0020_1">
  <metadata id="CorelCorpID_0Corel-Layer"/>
  <g>
   <path class="fil0" d="M1243 1853l-837 0c-29,0 -29,-45 0,-45l230 0c-290,-138 -478,-430 -478,-760 0,-13 10,-23 22,-23l116 0c-112,-89 -72,-248 64,-292 -37,-183 95,-358 280,-372 1,-66 28,-170 134,-213 28,-11 44,32 17,43 -92,36 -104,129 -105,170 92,6 175,52 230,127 45,2 87,18 121,44l190 -329c15,-26 54,-3 39,22l-150 261c69,-26 156,-14 212,30 34,-70 105,-116 184,-116 179,0 267,213 150,341 121,55 146,202 42,284l116 0c12,0 22,10 22,23 0,330 -188,622 -478,760l230 0c29,0 29,45 0,45l-351 0zm-812 -828l1138 0c86,0 155,-58 155,-129 0,-76 -75,-127 -149,-129 -11,-1 -20,-9 -21,-20 -7,-47 -31,-57 -35,-66l0 0c-1,-1 -1,-1 -2,-2l0 0c-1,-1 -2,-2 -2,-2l0 0c-1,-1 -2,-2 -3,-2l0 0 -7 -6 -8 -6 -3 -2 -5 -3c-1,-1 -2,-1 -3,-2l0 0 -9 -4c-25,-12 -52,-18 -80,-18l0 0 0 0 -2 0 -4 1 -2 0 -3 0c-24,1 -34,5 -42,-24 -17,-57 -82,-94 -149,-94 -55,0 -105,24 -134,63l-71 123c-15,26 -54,3 -39,-22l63 -109c-75,-63 -214,-47 -256,44 -6,13 -22,18 -33,10 -103,-70 -269,-4 -252,116 2,12 -7,23 -19,25l0 0c-17,3 -27,-4 -63,4 -66,15 -115,65 -115,125 0,71 69,129 155,129zm1105 -123c-13,0 -23,-10 -23,-23 0,-87 -71,-158 -158,-158 -29,0 -29,-45 0,-45 112,0 203,91 203,203 0,13 -10,23 -22,23zm-775 26c-22,0 -31,-30 -11,-42l84 -48c25,-15 48,24 22,39 -15,9 -82,51 -95,51zm280 -99c-23,0 -32,-31 -12,-43l84 -48c25,-14 48,25 23,39 -16,9 -83,52 -95,52zm188 118c-22,0 -31,-31 -11,-43l83 -48c26,-15 48,24 23,39 -15,9 -82,52 -95,52zm-711 -62c-14,0 -25,-14 -22,-28 25,-110 134,-178 244,-154 28,7 18,51 -10,45 -85,-20 -170,34 -189,119 -3,11 -12,18 -23,18zm-92 -164c3,-67 49,-125 116,-153 59,-24 130,-22 187,8l23 -29c29,-28 65,-47 108,-55 -162,-178 -461,-64 -461,179 0,17 2,35 5,52 7,-1 15,-2 22,-2zm322 -170c1,-1 2,-2 4,-4l-4 4zm615 0l21 38c97,-6 188,51 211,134l18 2c111,-93 48,-279 -101,-279 -67,0 -127,42 -149,105zm-603 1257l480 0c296,-93 506,-345 549,-646l-1578 0c43,301 253,553 549,646zm573 -169l-657 0c-82,0 -148,-66 -148,-148l0 -80c0,-82 66,-148 148,-148l657 0c81,0 148,66 148,148l0 80c0,82 -67,148 -148,148zm-1127 -522l1588 0c1,-16 2,-31 3,-47l-1594 0c1,16 2,31 3,47zm470 191c-57,0 -103,46 -103,103l0 80c0,57 46,103 103,103l657 0c56,0 102,-46 102,-103l0 -80c0,-57 -46,-103 -102,-103l-657 0z"/>
  </g>
  <g>
   <path class="fil1" d="M834 838c25,-15 48,24 22,39 -15,9 -82,51 -95,51 -22,0 -31,-30 -11,-42l84 -48zm-403 187l529 0 0 -313c-10,-6 -17,-18 -9,-31l9 -16 0 -122c-75,-24 -169,1 -202,73 -6,13 -22,18 -33,10 -103,-70 -269,-4 -252,116 2,12 -7,23 -19,25 -17,3 -27,-4 -63,4 -66,15 -115,65 -115,125 0,71 69,129 155,129zm299 -277c-85,-20 -170,34 -189,119 -3,11 -12,18 -23,18 -14,0 -25,-14 -22,-28 25,-110 134,-178 244,-154 28,7 18,51 -10,45z"/>
   <path class="fil2" d="M542 568c59,-24 130,-22 187,8l23 -29c29,-28 65,-47 108,-55 -162,-178 -461,-64 -461,179 0,17 2,35 5,52 7,-1 15,-2 22,-2 3,-67 49,-125 116,-153z"/>
   <path class="fil3" d="M960 1162l-749 0c43,301 253,553 549,646l200 0 0 -169 -284 0c-82,0 -148,-66 -148,-148l0 -80c0,-82 66,-148 148,-148l284 0 0 -101z"/>
   <path class="fil4" d="M206 1117l754 0 0 -47 -757 0c1,16 2,31 3,47z"/>
   <path class="fil4" d="M960 1308l-284 0c-57,0 -103,46 -103,103l0 80c0,57 46,103 103,103l284 0 0 -286z"/>
  </g>
 </g>
</svg>
