<?xml version="1.0" encoding="UTF-8" standalone="no"?> <svg xmlns="http://www.w3.org/2000/svg" viewBox="0 0 87.74 84.44"><defs><style>.cls-1{isolation:isolate;}.cls-2{fill:#fff;}.cls-3{fill:#371438;}.cls-4{fill:#dd8136;opacity:0.5;mix-blend-mode:multiply;}</style></defs><title>Asset 24</title><g class="cls-1"><g id="Layer_2" data-name="Layer 2"><g id="Layer_1-2" data-name="Layer 1"><ellipse class="cls-2" cx="30.17" cy="58.07" rx="7.62" ry="37.74" transform="translate(-33.55 43.18) rotate(-49.39)"/><path class="cls-3" d="M48,73.38c-1.49,1.74-10.72-3.73-20.61-12.21S10.71,44.4,12.2,42.66,22.91,46.4,32.81,54.88,49.51,71.65,48,73.38Z"/><path class="cls-3" d="M56.91,84.44c-2.35,0-5.83-1.31-10.53-3.93A142.85,142.85,0,0,1,24.48,64.7C12.63,54.54-3.5,37.65.67,32.78S24,41.27,35.86,51.44s28,27.06,23.81,31.93A3.44,3.44,0,0,1,56.91,84.44ZM3.41,33.91a1.31,1.31,0,0,0-1,.33C.89,36,7.69,47.36,25.94,63A141.32,141.32,0,0,0,47.47,78.56c7.15,4,10,3.94,10.5,3.35,1.48-1.72-5.31-13.12-23.57-28.77C18.41,39.43,7,33.91,3.41,33.91Z"/><path class="cls-2" d="M74.31,48.26a24.7,24.7,0,0,1-4.94,9.15C60,68.35,42.87,69.07,31.14,59S17.51,31.93,26.9,21a24.38,24.38,0,0,1,8.26-6.27"/><path class="cls-4" d="M42.53,60.38A34.42,34.42,0,0,1,30.06,58c.35.33.71.65,1.08,1C42.87,69.07,60,68.35,69.37,57.41a24.7,24.7,0,0,0,4.94-9.15L71,45.39A34.49,34.49,0,0,1,42.53,60.38Z"/><path class="cls-3" d="M73.34,48.93C68,48.93,57,40.84,51.07,35.78A89.25,89.25,0,0,1,38.26,22.59c-3.47-4.6-4.47-7.64-3-9.29,3.47-4.05,17.63,6.23,24.63,12.24S79.17,44,75.7,48A3,3,0,0,1,73.34,48.93ZM37.62,14.53a.92.92,0,0,0-.71.22c-.24.29-.19,2.08,3.13,6.49A87.15,87.15,0,0,0,52.52,34.08C64.52,44.37,73,47.73,74,46.56s-3.61-9-15.61-19.33C47.88,18.23,40.07,14.53,37.62,14.53Z"/><path class="cls-3" d="M36.19,17.07c1.67,4.07,7.62,11,15.6,17.86s15.75,11.66,20,12.69c-1.67-4.07-7.62-11-15.6-17.85S40.47,18.1,36.19,17.07Z"/><path class="cls-2" d="M50.84,28.72a1.08,1.08,0,0,1-.68-.23,87.42,87.42,0,0,0-7.42-5.2,1.12,1.12,0,0,1,1.17-1.9,88,88,0,0,1,7.62,5.33,1.12,1.12,0,0,1-.69,2Z"/><path class="cls-2" d="M56,33a1.17,1.17,0,0,1-.74-.27l-.8-.7L53,30.76A1.12,1.12,0,0,1,54.42,29L56,30.32l.82.71A1.12,1.12,0,0,1,56,33Z"/><path class="cls-3" d="M29.56,19.45a1.13,1.13,0,0,1-.85-.39,1.11,1.11,0,0,1,.12-1.58,25.76,25.76,0,0,1,5.86-3.78,1.12,1.12,0,1,1,1,2,23.25,23.25,0,0,0-5.36,3.45A1.11,1.11,0,0,1,29.56,19.45Z"/><path class="cls-3" d="M24.42,25.56a1.07,1.07,0,0,1-.57-.16,1.11,1.11,0,0,1-.39-1.53,25.32,25.32,0,0,1,2.59-3.61c.14-.17.29-.33.43-.49a1.12,1.12,0,1,1,1.66,1.49l-.4.46A23.79,23.79,0,0,0,25.38,25,1.12,1.12,0,0,1,24.42,25.56Z"/><path class="cls-3" d="M50,67.22a30,30,0,0,1-19.55-7.36c-9.61-8.24-13.14-21.22-8.77-32.3a1.12,1.12,0,1,1,2.08.81c-4,10.2-.74,22.17,8.14,29.79A27.7,27.7,0,0,0,51.09,65a24,24,0,0,0,17.43-8.28A23.48,23.48,0,0,0,73.24,48a1.12,1.12,0,1,1,2.14.63,25.58,25.58,0,0,1-5.16,9.55,26.24,26.24,0,0,1-19,9.07C50.78,67.22,50.37,67.22,50,67.22Z"/><path class="cls-3" d="M65.59,70.92a21.45,21.45,0,0,1-8.51-2l-.1,0-8.34-4.68a1.12,1.12,0,1,1,1.1-1.95L58,66.94c14.08,6.07,19.37-5.55,19.59-6a2.59,2.59,0,0,0-.13-2.42c-.88-1.06-3.3-1-4.08-.93-2.18.3-3.79-.08-4.78-1.15A3.94,3.94,0,0,1,67.78,53a1.12,1.12,0,0,1,2.18.48,1.76,1.76,0,0,0,.31,1.37c.45.48,1.46.64,2.84.44.45,0,4.29-.46,6.09,1.73,1,1.15,1.12,2.71.5,4.63C79.61,61.88,75.51,70.92,65.59,70.92Z"/><path class="cls-3" d="M66.84,19.31a9.79,9.79,0,0,1-2.69-.52c-1.07-.31-2.28-.66-2.64-.23a1.11,1.11,0,0,1-1.57.12,1.12,1.12,0,0,1-.13-1.58c1.3-1.51,3.33-.93,5-.45,1.07.3,2.28.66,2.64.23s-.16-1.56-.63-2.57c-.72-1.54-1.61-3.45-.31-5s3.33-.93,5-.46c1.07.31,2.28.66,2.64.24s-.17-1.56-.64-2.57c-.72-1.54-1.61-3.45-.31-5s3.33-.92,5-.45c1.06.31,2.27.66,2.64.24a1.11,1.11,0,0,1,1.69,1.45c-1.3,1.52-3.32.93-5,.46C76.39,3,75.18,2.62,74.82,3s.17,1.56.64,2.57c.71,1.54,1.61,3.45.31,5s-3.33.92-5,.45c-1.07-.31-2.28-.66-2.64-.24s.17,1.57.63,2.58c.72,1.54,1.61,3.45.31,5A2.83,2.83,0,0,1,66.84,19.31Z"/><path class="cls-3" d="M74.22,28.22a8.74,8.74,0,0,1-2.33-.45c-.72-.21-1.81-.53-2-.25a1.12,1.12,0,0,1-1.7-1.46c1.18-1.36,2.94-.85,4.37-.44.72.21,1.81.53,2,.25s-.25-1.29-.56-2c-.63-1.35-1.41-3-.24-4.38s2.94-.85,4.37-.44c.72.21,1.81.52,2,.26s-.25-1.3-.57-2c-.62-1.34-1.4-3-.23-4.38s2.94-.85,4.36-.43c.72.21,1.81.52,2,.25a1.11,1.11,0,0,1,1.57-.12,1.12,1.12,0,0,1,.13,1.58c-1.17,1.36-2.94.85-4.37.43-.72-.2-1.8-.52-2-.25s.25,1.29.57,2c.62,1.35,1.4,3,.23,4.38s-2.94.85-4.36.44c-.72-.21-1.81-.53-2-.26s.25,1.3.56,2c.63,1.35,1.41,3,.24,4.38A2.55,2.55,0,0,1,74.22,28.22Z"/><path class="cls-3" d="M54.6,16.12a8.67,8.67,0,0,1-2.32-.45c-.72-.21-1.81-.52-2-.25A1.12,1.12,0,0,1,48.54,14c1.17-1.36,2.94-.85,4.36-.44.72.21,1.81.53,2,.26s-.24-1.3-.56-2c-.62-1.34-1.4-3-.23-4.38s2.94-.85,4.36-.44c.72.21,1.81.53,2,.26s-.24-1.3-.56-2c-.63-1.34-1.4-3-.24-4.37S62.69,0,64.12.45c.72.21,1.8.52,2,.25a1.12,1.12,0,1,1,1.69,1.46c-1.16,1.36-2.94.85-4.36.44-.72-.21-1.81-.53-2-.26s.25,1.3.57,2c.62,1.34,1.4,3,.23,4.37s-2.94.85-4.36.44c-.72-.21-1.81-.52-2-.25s.24,1.29.56,2c.63,1.34,1.4,3,.23,4.37A2.53,2.53,0,0,1,54.6,16.12Z"/></g></g></g></svg>