<?xml version="1.0" encoding="UTF-8" standalone="no"?> <svg width="512" height="512" viewBox="0 0 512 512" fill="none" xmlns="http://www.w3.org/2000/svg">
<path d="M132.812 23.9942L101.903 32.2822L139.199 171.372L170.108 163.084L132.812 23.9942Z" fill="#9E6536"/>
<path d="M44.9428 51.0876L23.9956 75.2764L132.845 169.539L153.792 145.35L44.9428 51.0876Z" fill="#9E6536"/>
<path d="M488.015 46.2293L464.61 24.4053L350.034 147.28L373.439 169.104L488.015 46.2293Z" fill="#9E6536"/>
<path d="M256 200C304.601 200 344 160.601 344 112C344 63.3989 304.601 24 256 24C207.399 24 168 63.3989 168 112C168 160.601 207.399 200 256 200Z" fill="#C95757"/>
<path d="M183.322 248C231.923 248 271.322 208.601 271.322 160C271.322 111.399 231.923 72 183.322 72C134.721 72 95.3218 111.399 95.3218 160C95.3218 208.601 134.721 248 183.322 248Z" fill="#B8DD66"/>
<path d="M328 247.322C376.601 247.322 416 207.923 416 159.322C416 110.721 376.601 71.3223 328 71.3223C279.399 71.3223 240 110.721 240 159.322C240 207.923 279.399 247.322 328 247.322Z" fill="#FCD47C"/>
<path d="M288 397.034C288 386.071 282.485 376.4 274.08 370.633L288 304H224L237.92 370.633C229.515 376.4 224 386.071 224 397.034C224 408.366 229.896 418.315 238.781 424L232 472H280L273.219 424C282.104 418.314 288 408.366 288 397.034Z" fill="#E8944F"/>
<path d="M352 488H160C179.992 458.012 213.648 440 249.689 440H262.311C298.352 440 332.008 458.012 352 488Z" fill="#C57E43"/>
<path d="M306.375 328H205.625C154.121 328 108.019 296.052 89.935 247.827L72 200H440L422.065 247.827C403.981 296.052 357.879 328 306.375 328Z" fill="#AE6F3B"/>
<path d="M256 304C251.582 304 248 300.418 248 296V232C248 227.582 251.582 224 256 224C260.418 224 264 227.582 264 232V296C264 300.418 260.418 304 256 304Z" fill="#7A4E2A"/>
<path d="M311.994 304.002C310.792 304.002 309.571 303.73 308.423 303.155C304.471 301.179 302.869 296.374 304.845 292.422L336.845 228.422C338.821 224.471 343.626 222.868 347.578 224.844C351.53 226.82 353.132 231.625 351.156 235.577L319.156 299.577C317.754 302.381 314.928 304.002 311.994 304.002Z" fill="#7A4E2A"/>
<path d="M200.006 304.002C197.071 304.002 194.246 302.381 192.844 299.578L160.844 235.578C158.868 231.626 160.47 226.821 164.422 224.845C168.375 222.869 173.18 224.47 175.155 228.423L207.155 292.423C209.131 296.375 207.529 301.18 203.577 303.156C202.429 303.729 201.208 304.002 200.006 304.002Z" fill="#7A4E2A"/>
<path d="M448 200H64C55.163 200 48 192.837 48 184C48 175.163 55.163 168 64 168H448C456.837 168 464 175.163 464 184C464 192.837 456.837 200 448 200Z" fill="#E8944F"/>
<path d="M344 168H312H280V216C280 224.837 287.163 232 296 232C304.837 232 312 224.837 312 216V248C312 256.837 319.163 264 328 264C336.837 264 344 256.837 344 248V264C344 272.837 351.163 280 360 280C368.837 280 376 272.837 376 264V168H344Z" fill="#FCD47C"/>
<path d="M152.006 136.002C149.071 136.002 146.246 134.381 144.844 131.578L136.844 115.578C134.868 111.626 136.469 106.821 140.422 104.845C144.375 102.87 149.18 104.471 151.155 108.423L159.155 124.423C161.131 128.375 159.53 133.18 155.577 135.156C154.429 135.729 153.208 136.002 152.006 136.002Z" fill="#809947"/>
<path d="M192 120H176C171.582 120 168 116.418 168 112C168 107.582 171.582 104 176 104H192C196.418 104 200 107.582 200 112C200 116.418 196.418 120 192 120Z" fill="#809947"/>
<path d="M200 152C197.953 152 195.905 151.219 194.343 149.657L186.343 141.657C183.218 138.533 183.218 133.468 186.343 130.344C189.467 127.22 194.532 127.22 197.656 130.344L205.656 138.344C208.781 141.468 208.781 146.533 205.656 149.657C204.095 151.219 202.047 152 200 152Z" fill="#809947"/>
<path d="M247.994 64.0022C246.792 64.0022 245.571 63.7302 244.423 63.1552L228.423 55.1552C224.471 53.1792 222.869 48.3742 224.845 44.4222C226.82 40.4712 231.627 38.8682 235.578 40.8442L251.578 48.8442C255.53 50.8202 257.132 55.6252 255.156 59.5772C253.754 62.3812 250.928 64.0022 247.994 64.0022Z" fill="#954141"/>
<path d="M272.006 72.0019C269.071 72.0019 266.246 70.3809 264.844 67.5779C262.868 63.6259 264.469 58.8209 268.422 56.8449L284.422 48.8449C288.375 46.8699 293.179 48.4709 295.155 52.4229C297.131 56.3749 295.53 61.1799 291.577 63.1559L275.577 71.1559C274.429 71.7289 273.208 72.0019 272.006 72.0019Z" fill="#954141"/>
<path d="M280 152C275.582 152 272 148.418 272 144V128C272 123.582 275.582 120 280 120C284.418 120 288 123.582 288 128V144C288 148.418 284.418 152 280 152Z" fill="#9E854E"/>
<path d="M319.994 128.002C318.792 128.002 317.571 127.73 316.423 127.155C312.471 125.179 310.869 120.374 312.845 116.422L320.845 100.422C322.821 96.4699 327.626 94.869 331.578 96.844C335.53 98.82 337.132 103.625 335.156 107.577L327.156 123.577C325.754 126.381 322.928 128.002 319.994 128.002Z" fill="#9E854E"/>
<path d="M375.994 128.002C374.792 128.002 373.571 127.73 372.423 127.155L356.423 119.155C352.471 117.179 350.869 112.374 352.845 108.422C354.821 104.471 359.626 102.868 363.578 104.844L379.578 112.844C383.53 114.82 385.132 119.625 383.156 123.577C381.754 126.381 378.928 128.002 375.994 128.002Z" fill="#9E854E"/>
<path d="M352 152C349.953 152 347.905 151.219 346.343 149.657L338.343 141.657C335.218 138.533 335.218 133.468 338.343 130.344C341.467 127.22 346.532 127.22 349.656 130.344L357.656 138.344C360.781 141.468 360.781 146.533 357.656 149.657C356.095 151.219 354.047 152 352 152Z" fill="#9E854E"/>
<path d="M493.456 40.3694L470.056 18.5494C466.825 15.5374 461.763 15.7134 458.749 18.9444L393.352 89.0714C378.759 75.4864 359.946 66.3844 339.119 63.9704C321.969 34.2734 290.524 16.0004 256 16.0004C221.182 16.0004 189.581 34.5194 172.513 64.6034C165.892 65.3414 159.41 66.7614 153.114 68.8544L140.538 21.9284C139.989 19.8784 138.647 18.1314 136.809 17.0704C134.971 16.0094 132.787 15.7224 130.738 16.2724L99.8281 24.5624C95.5611 25.7074 93.0291 30.0934 94.1731 34.3614L110.953 96.9464C110.835 97.0814 110.719 97.2184 110.602 97.3544L50.1881 45.0334C46.8481 42.1404 41.7961 42.5044 38.9031 45.8434L17.9531 70.0334C16.5641 71.6374 15.8691 73.7274 16.0211 75.8434C16.1731 77.9604 17.1601 79.9294 18.7641 81.3184L88.9891 142.131C87.8841 147.988 87.3211 153.958 87.3211 160.001H64.0001C57.5971 160.001 51.5711 162.492 47.0141 167.034C42.4911 171.571 40.0001 177.597 40.0001 184C40.0001 197.234 50.7661 208 64.0001 208H66.4571L82.4501 250.639C91.8961 275.83 108.577 297.247 130.691 312.573C152.805 327.899 178.715 336 205.62 336H222.509L229.082 367.45C220.809 374.984 216 385.694 216 397.03C216 408.945 221.223 420.03 230.192 427.59L229.312 433.807C198.531 439.282 171.038 457.021 153.343 483.563C151.706 486.018 151.554 489.174 152.946 491.775C154.338 494.376 157.05 496 160 496H352C354.95 496 357.661 494.376 359.053 491.775C360.445 489.174 360.293 486.017 358.656 483.563C340.961 457.02 313.468 439.282 282.687 433.807L281.807 427.59C290.776 420.03 295.999 408.945 295.999 397.03C295.999 385.695 291.19 374.985 282.916 367.45L289.489 336H306.378C333.283 336 359.193 327.899 381.308 312.573C403.422 297.247 420.103 275.83 429.549 250.64L445.543 208H448C454.403 208 460.429 205.509 464.986 200.967C469.509 196.429 472 190.403 472 184C472 170.766 461.234 160 448 160H423.988C423.989 159.774 424 159.548 424 159.322C424 149.515 422.518 140.048 419.773 131.129L493.851 51.6764C496.864 48.4444 496.687 43.3824 493.456 40.3694ZM328 79.3224C372.112 79.3224 408 115.21 408 159.322C408 159.548 407.986 159.774 407.984 160H248.017C248.015 159.774 248 159.548 248 159.322C248 115.21 283.888 79.3224 328 79.3224ZM344 240C339.582 240 336 243.582 336 248C336 252.411 332.411 256 328 256C323.589 256 320 252.411 320 248V216C320 211.582 316.418 208 312 208C307.582 208 304 211.582 304 216C304 220.411 300.411 224 296 224C291.589 224 288 220.411 288 216V176H368V264C368 268.411 364.411 272 360 272C355.589 272 352 268.411 352 264V248C352 243.582 348.418 240 344 240ZM256 32.0004C281.396 32.0004 304.785 43.8734 319.756 63.6804C294.111 65.8724 271.31 78.1834 255.381 96.6004C239.111 78.1164 216.289 66.5354 191.718 64.3714C206.658 44.1414 230.272 32.0004 256 32.0004ZM127.154 33.8004L138.262 75.2464C133.29 77.8884 128.571 80.9334 124.153 84.3984L111.698 37.9454L127.154 33.8004ZM108.613 131.336C111.013 125.058 114.238 119.068 118.201 113.528C120.418 110.422 122.904 107.426 125.585 104.626C132.841 97.0574 141.369 91.0714 150.939 86.8314C161.137 82.2984 172.032 80.0004 183.32 80.0004C207.639 80.0004 230.585 91.1024 245.708 109.936C237.01 124.374 232 141.273 232 159.322C232 159.548 232.007 159.774 232.008 160H103.32C103.32 150.125 105.099 140.484 108.613 131.336ZM35.2851 74.4604L45.7601 62.3654L101.161 110.345C98.2891 115.084 95.8371 120.047 93.8471 125.174L35.2851 74.4604ZM64.0001 192C59.5891 192 56.0001 188.411 56.0001 184C56.0001 181.86 56.8331 179.846 58.3281 178.347C59.8461 176.833 61.8601 176 64.0001 176H272V192H64.0001ZM335.554 480H176.446C195.171 459.734 221.58 448 249.689 448H262.311C290.42 448 316.83 459.734 335.554 480ZM245.75 368.993L238.854 336H273.145L266.249 368.993C265.589 372.151 266.891 375.397 269.55 377.224C276.093 381.719 280 389.122 280 397.03C280 405.248 275.852 412.812 268.904 417.264C266.269 418.952 264.861 422.022 265.299 425.12L266.283 432.072C264.962 432.027 263.639 432 262.311 432H249.689C248.361 432 247.038 432.027 245.717 432.072L246.701 425.12C247.139 422.022 245.731 418.952 243.096 417.264C236.148 412.812 232 405.248 232 397.03C232 389.123 235.906 381.719 242.45 377.224C245.109 375.397 246.411 372.151 245.75 368.993ZM414.569 245.021C406.272 267.148 391.62 285.959 372.195 299.422C352.771 312.884 330.012 320 306.38 320H205.62C181.988 320 159.229 312.884 139.805 299.422C120.38 285.96 105.728 267.149 97.4301 245.02L83.5451 208H272V216C272 229.233 282.767 240 296 240C298.804 240 301.497 239.517 304 238.629V248C304 257.078 309.067 264.994 316.521 269.071L304.845 292.423C302.869 296.375 304.47 301.18 308.423 303.156C309.571 303.73 310.792 304.003 311.994 304.003C314.929 304.003 317.754 302.382 319.156 299.579L333.245 271.401C334.48 271.124 335.688 270.773 336.843 270.314C339.621 280.493 348.95 288 360 288C373.233 288 384 277.233 384 264V208H428.455L414.569 245.021ZM448 176C452.411 176 456 179.589 456 184C456 186.14 455.167 188.154 453.672 189.653C452.154 191.167 450.14 192 448 192H384V176H448ZM413.063 114.863C410.49 109.96 407.505 105.306 404.155 100.946L464.994 35.7074L476.693 46.6164L413.063 114.863Z" fill="black"/>
<path d="M256 224C251.582 224 248 227.582 248 232V296C248 300.418 251.582 304 256 304C260.418 304 264 300.418 264 296V232C264 227.581 260.418 224 256 224Z" fill="black"/>
<path d="M175.155 228.422C173.18 224.47 168.375 222.869 164.422 224.844C160.47 226.82 158.868 231.625 160.844 235.577L192.844 299.577C194.245 302.381 197.071 304.001 200.006 304.001C201.208 304.001 202.429 303.729 203.577 303.154C207.529 301.178 209.131 296.373 207.155 292.421L175.155 228.422Z" fill="black"/>
<path d="M151.155 108.422C149.18 104.47 144.375 102.869 140.422 104.844C136.47 106.82 134.868 111.625 136.844 115.577L144.844 131.577C146.245 134.381 149.071 136.001 152.006 136.001C153.208 136.001 154.429 135.729 155.577 135.154C159.529 133.178 161.131 128.373 159.155 124.421L151.155 108.422Z" fill="black"/>
<path d="M200 112C200 107.582 196.418 104 192 104H176C171.582 104 168 107.582 168 112C168 116.418 171.582 120 176 120H192C196.418 120 200 116.418 200 112Z" fill="black"/>
<path d="M197.657 130.343C194.533 127.219 189.468 127.219 186.344 130.343C183.219 133.467 183.219 138.532 186.344 141.656L194.344 149.656C195.906 151.218 197.953 151.999 200.001 151.999C202.049 151.999 204.096 151.218 205.658 149.656C208.783 146.532 208.783 141.467 205.658 138.343L197.657 130.343Z" fill="black"/>
<path d="M228.422 55.1554L244.422 63.1554C245.57 63.7294 246.791 64.0024 247.993 64.0024C250.928 64.0024 253.753 62.3814 255.155 59.5784C257.131 55.6264 255.53 50.8214 251.577 48.8454L235.577 40.8454C231.626 38.8694 226.819 40.4714 224.844 44.4234C222.869 48.3744 224.47 53.1804 228.422 55.1554Z" fill="black"/>
<path d="M272.006 72.0019C273.208 72.0019 274.429 71.7299 275.577 71.1549L291.577 63.1549C295.529 61.1789 297.131 56.374 295.155 52.422C293.179 48.47 288.375 46.869 284.422 48.844L268.422 56.844C264.47 58.82 262.868 63.625 264.844 67.577C266.246 70.381 269.071 72.0019 272.006 72.0019Z" fill="black"/>
<path d="M280 120C275.582 120 272 123.582 272 128V144C272 148.418 275.582 152 280 152C284.418 152 288 148.418 288 144V128C288 123.582 284.418 120 280 120Z" fill="black"/>
<path d="M331.578 96.8454C327.626 94.8694 322.821 96.4714 320.845 100.423L312.845 116.423C310.869 120.375 312.47 125.18 316.423 127.156C317.571 127.73 318.792 128.003 319.994 128.003C322.929 128.003 325.754 126.382 327.156 123.579L335.156 107.579C337.131 103.626 335.53 98.8204 331.578 96.8454Z" fill="black"/>
<path d="M379.578 112.845L363.578 104.845C359.626 102.869 354.821 104.471 352.845 108.423C350.869 112.375 352.47 117.18 356.423 119.156L372.423 127.156C373.571 127.73 374.792 128.003 375.994 128.003C378.929 128.003 381.754 126.382 383.156 123.579C385.131 119.626 383.53 114.82 379.578 112.845Z" fill="black"/>
<path d="M349.657 130.343C346.533 127.219 341.468 127.219 338.344 130.343C335.219 133.467 335.219 138.532 338.344 141.656L346.344 149.656C347.906 151.218 349.953 151.999 352.001 151.999C354.049 151.999 356.096 151.218 357.658 149.656C360.783 146.532 360.783 141.467 357.658 138.343L349.657 130.343Z" fill="black"/>
</svg>
