<?xml version="1.0" encoding="utf-8"?>
<!-- Generator: Adobe Illustrator 16.0.0, SVG Export Plug-In . SVG Version: 6.00 Build 0)  -->
<!DOCTYPE svg PUBLIC "-//W3C//DTD SVG 1.0//EN" "http://www.w3.org/TR/2001/REC-SVG-20010904/DTD/svg10.dtd">
<svg version="1.0" id="Layer_1" xmlns="http://www.w3.org/2000/svg" xmlns:xlink="http://www.w3.org/1999/xlink" x="0px" y="0px"
	 width="100px" height="100px" viewBox="0 0 100 100" enable-background="new 0 0 100 100" xml:space="preserve">
<path fill="#E53A34" d="M45.138,43.333c-1.14-1.963-1.804-4.236-1.804-6.667c0-7.349,5.982-13.332,13.334-13.332
	c7.354,0,13.333,5.983,13.333,13.332c0,2.431-0.664,4.704-1.805,6.667h7.328c0.737-2.083,1.144-4.327,1.144-6.667
	c0-11.043-8.963-19.999-20-19.999c-11.04,0-20,8.956-20,19.999c0,2.339,0.405,4.583,1.144,6.667H45.138z"/>
<path fill="#FCEAED" d="M68.196,43.333c1.141-1.963,1.805-4.236,1.805-6.667c0-7.349-5.979-13.332-13.333-13.332
	c-7.352,0-13.334,5.983-13.334,13.332c0,2.431,0.664,4.704,1.804,6.667H68.196z"/>
<path fill="#B62025" d="M74.249,27.172c-0.651-1.201-1.407-2.338-2.281-3.375l-4.75,4.75c0.847,1.097,1.525,2.329,2.002,3.655
	L74.249,27.172z"/>
<path fill="#B62025" d="M44.61,20.965c1.572-0.677,3.099-0.873,4.42-0.318c1.39,0.575,2.406,1.819,3.036,3.531
	c1.241-0.457,2.565-0.743,3.948-0.811c-0.876-2.762-2.442-4.82-4.593-5.999c-2.491,0.678-4.782,1.833-6.788,3.348
	C44.626,20.8,44.62,20.882,44.61,20.965z"/>
<path fill="#F9CCD2" d="M48.871,43.333h9.217L69.22,32.202c-0.477-1.326-1.155-2.558-2.002-3.655L56.432,39.333h-1.457
	c1.412-4.128,2.051-8.276,1.793-11.888c-0.105-1.489-0.363-2.85-0.753-4.078c-1.383,0.067-2.707,0.354-3.948,0.811
	c1.386,3.771,0.889,9.807-1.65,15.93C49.947,41.244,49.427,42.319,48.871,43.333z"/>
<path fill="#455A64" d="M10.002,43.333c0,11.177,6.608,21.06,16.74,27.109l3.259,19.554h40l3.259-19.554
	C83.392,64.393,90,54.51,90,43.333H10.002z M64.354,83.33H35.648l-1.57-9.419C38.958,75.68,44.34,76.664,50,76.664
	c5.661,0,11.043-0.984,15.923-2.753L64.354,83.33z M50,69.997c-15.5,0-28.566-8.512-32.277-19.997h64.555
	C78.567,61.485,65.506,69.997,50,69.997z"/>
<path fill="#263238" d="M26.742,70.442l0.832,4.991c2.292,1.156,4.714,2.146,7.249,2.939l-0.744-4.462
	C31.477,72.969,29.021,71.802,26.742,70.442z"/>
<path fill="#263238" d="M65.923,73.911l-0.742,4.46c2.534-0.793,4.956-1.781,7.247-2.939l0.832-4.989
	C70.98,71.802,68.525,72.969,65.923,73.911z"/>
<path fill="#CFD8DB" d="M50,76.664c-5.66,0-11.042-0.984-15.921-2.753l1.57,9.419h28.705l1.569-9.419
	C61.043,75.68,55.661,76.664,50,76.664z"/>
<path fill="#AFBDC4" d="M34.079,73.911l0.744,4.462c4.733,1.481,9.846,2.291,15.178,2.291s10.446-0.81,15.18-2.293l0.743-4.46
	C61.043,75.68,55.661,76.664,50,76.664C44.34,76.664,38.958,75.68,34.079,73.911z"/>
<path fill="#CFD8DB" d="M50,69.997c-15.5,0-28.566-8.512-32.277-19.997h64.555C78.567,61.485,65.506,69.997,50,69.997z"/>
<path fill="#AFBDC4" d="M22.523,50h-4.8C21.434,61.485,34.5,69.997,50,69.997c0.808,0,1.607-0.027,2.4-0.074
	C37.966,69.098,26.041,60.887,22.523,50z"/>
<path fill="#F68C1E" d="M67.514,43.333L83.158,27.69c0.188,1.175,0.224,2.415,0.106,3.705c-0.386,4.269-2.404,8.482-5.677,11.938
	h8.4c5.637-9.031,5.418-20.012-1.236-26.665L58.088,43.333H67.514z"/>
<path fill="#FFF3E1" d="M77.588,43.333c3.272-3.456,5.291-7.669,5.677-11.938c0.117-1.29,0.081-2.53-0.106-3.705L67.514,43.333
	H77.588z"/>
<path fill="#FFDFB1" d="M77.595,43.333c1.179-1.246,2.197-2.587,3.031-4h-9.112l-4,4H77.595z"/>
<path fill="#E45325" d="M85.984,43.333c0.81-1.299,1.507-2.636,2.073-4h-7.432c-0.834,1.413-1.853,2.754-3.031,4H85.984z"/>
<polygon fill="#E45325" points="67.514,43.333 71.514,39.333 62.088,39.333 58.088,43.333 "/>
<path fill="#7CB342" d="M14.774,33.322c-1.592,0.631-2.806,1.576-3.353,2.9c-0.86,2.076-0.061,4.616,1.923,7.111h10.375
	c-2.704-1.529-4.398-3.146-5.274-4.276l9.274-3.684l-8.544-7.063l9.42,1.334l-2.002-9.335c-0.088-0.404-0.152-0.789-0.205-1.141
	c0.215,0.288,0.437,0.606,0.664,0.955l5.189,8.014l5.703-7.591l-1.328,11.113l9.453-4.064c0.241,1.879,0.072,5.422-1.81,9.959
	c-0.896,2.167-2.059,4.175-3.32,5.78h7.936c0.554-1.016,1.074-2.09,1.543-3.225c3.692-8.902,3.066-17.62-1.386-19.461
	c-1.322-0.554-2.848-0.359-4.42,0.318c0.547-4.576-0.462-8.285-2.982-9.329c-2.597-1.077-6.074,0.989-8.984,4.863
	c-3.069-4.743-7.041-7.409-9.934-6.211c-2.897,1.198-3.818,5.892-2.637,11.416c-4.792-0.681-8.71,0.312-9.788,2.913
	C9.24,27.137,11.148,30.47,14.774,33.322z"/>
<path fill="#F1F7E9" d="M23.719,43.333h17.219c1.262-1.605,2.425-3.614,3.32-5.78c1.881-4.537,2.051-8.08,1.81-9.959l-9.453,4.064
	l1.328-11.113l-5.703,7.591l-5.189-8.014c-0.228-0.349-0.449-0.667-0.664-0.955c0.053,0.352,0.117,0.737,0.205,1.141l2.002,9.335
	l-9.42-1.334l8.544,7.063l-9.274,3.684C19.321,40.187,21.015,41.804,23.719,43.333z"/>
<path fill="#568B3F" d="M48.874,43.333c0.554-1.016,1.074-2.09,1.543-3.225c0.108-0.259,0.199-0.515,0.298-0.775h-7.28
	c-0.744,1.483-1.602,2.842-2.509,4H48.874z"/>
<path fill="#568B3F" d="M23.727,43.333c-2.49-1.408-4.124-2.89-5.048-4h-7.425c0.301,1.295,1.024,2.653,2.092,4H23.727z"/>
<path fill="#DBEBC7" d="M23.727,43.333h17.199c0.907-1.158,1.765-2.517,2.509-4H18.679C19.604,40.443,21.237,41.925,23.727,43.333z"
	/>
</svg>
