<?xml version="1.0" encoding="UTF-8" standalone="no"?> <svg xmlns="http://www.w3.org/2000/svg" viewBox="0 0 32 32"><defs><style>.cls-1{fill:#2d4a60;}.cls-2{fill:#eaeff0;}.cls-3{fill:#ffd188;}.cls-4{fill:#009ae0;}</style></defs><title>Time Management</title><g id="Time_Management" data-name="Time Management"><circle class="cls-1" cx="18" cy="14" r="10"/><circle class="cls-2" cx="18" cy="14" r="8"/><path class="cls-1" d="M18,15h3a1,1,0,0,0,0-2H19V9a1,1,0,0,0-2,0v5A1,1,0,0,0,18,15Z"/><path class="cls-3" d="M9,19l1.74-.435a8,8,0,0,1,4.47.172l.174.058a4,4,0,0,0,1.265.2H20a2,2,0,0,1,2,2h0l-.25.96,5.69-.71a2.635,2.635,0,0,1,.28-.02,2.279,2.279,0,0,1,.72,4.44l-5.77,1.92a8.028,8.028,0,0,1-2.53.41H14.89a8.081,8.081,0,0,1-3.58-.84L9,26H6V19Z"/><rect class="cls-4" x="2" y="17" width="6" height="11" rx="2"/></g></svg>