<svg xmlns="http://www.w3.org/2000/svg" width = "100%" height="100%" viewBox ="0 0 42 42">
<style>
.c0{ fill: rgb(255,255,255); stroke: rgb(255,255,255);}
.c1{ fill: rgb(233,80,91); stroke: rgb(233,80,91);}
.c2{ fill: rgb(234,87,97); stroke: rgb(234,87,97);}
.c3{ fill: rgb(234,93,103); stroke: rgb(234,93,103);}
.c4{ fill: rgb(236,101,111); stroke: rgb(236,101,111);}
.c5{ fill: rgb(236,108,117); stroke: rgb(236,108,117);}
.c6{ fill: rgb(237,113,123); stroke: rgb(237,113,123);}
.c7{ fill: rgb(238,119,126); stroke: rgb(238,119,126);}
.c8{ fill: rgb(239,126,135); stroke: rgb(239,126,135);}
.c9{ fill: rgb(240,136,144); stroke: rgb(240,136,144);}
.c10{ fill: rgb(241,143,151); stroke: rgb(241,143,151);}
.c11{ fill: rgb(242,151,158); stroke: rgb(242,151,158);}
.c12{ fill: rgb(243,157,164); stroke: rgb(243,157,164);}
.c13{ fill: rgb(244,164,169); stroke: rgb(244,164,169);}
.c14{ fill: rgb(244,170,175); stroke: rgb(244,170,175);}
.c15{ fill: rgb(246,183,187); stroke: rgb(246,183,187);}
.c16{ fill: rgb(247,191,195); stroke: rgb(247,191,195);}
.c17{ fill: rgb(248,197,201); stroke: rgb(248,197,201);}
.c18{ fill: rgb(249,205,209); stroke: rgb(249,205,209);}
.c19{ fill: rgb(250,216,218); stroke: rgb(250,216,218);}
.c20{ fill: rgb(251,221,223); stroke: rgb(251,221,223);}
.c21{ fill: rgb(252,226,228); stroke: rgb(252,226,228);}
.c22{ fill: rgb(253,233,234); stroke: rgb(253,233,234);}
.c23{ fill: rgb(254,240,241); stroke: rgb(254,240,241);}
.c24{ fill: rgb(254,247,247); stroke: rgb(254,247,247);}
</style>
<g transform="scale(0.1 0.1)" stroke-width="10">
<path d="M 5, 0c 33,0 131,-9 140,0c 10,10 -26,12 -40,15c -9,2 -26,19 -30,25c -2,3 1,7 0,10c -3,9 -16,14 -20,20c -8,12 -2,43 -10,55c -8,12 -15,-3 -10,15c 18,72 -5,-31 10,15c 2,6 -4,14 0,20c 5,8 27,30 35,35c 9,6 30,-3 40,0c 18,6 25,25 45,30c 29,7 49,-15 65,-10c 11,4 0,8 5,15c 10,15 9,-2 20,5c 11,7 23,22 35,30c 1,0 28,2 15,15c -2,2 -52,13 -55,10c -6,-6 -11,-31 -25,-40c -20,-13 -62,5 -85,-10c -3,-2 -2,-8 -5,-10c -11,-7 -76,-20 -90,-20c -9,0 -42,5 -45,-5c -12,-35 0,-165 0,-210z" class="c0"/>
<path d="M 5, 230c -2,2 -3,3 -5,5z" class="c19"/>
<path d="M 5, 240c -2,2 -3,3 -5,5z" class="c5"/>
<path d="M 5, 250c 0,115 -3,147 -5,145c -9,-9 0,-107 0,-140z" class="c1"/>
<path d="M 5, 400c -2,2 -3,3 -5,5z" class="c6"/>
<path d="M 5, 410c -2,2 -3,3 -5,5z" class="c21"/>
<path d="M 15, 230c 0,6 -5,28 -5,5z" class="c4"/>
<path d="M 15, 250c 0,115 -3,147 -5,145c -9,-9 0,-107 0,-140z" class="c12"/>
<path d="M 15, 400c 2,3 2,8 5,10c 0,0 40,0 35,5c -10,10 -37,-6 -45,-10z" class="c3"/>
<path d="M 15, 410c -2,2 -3,3 -5,5z" class="c7"/>
<path d="M 25, 230c 4,0 27,-3 30,0c 4,4 -33,5 -35,5z" class="c1"/>
<path d="M 25, 240c 29,0 16,5 -5,5z" class="c13"/>
<path d="M 25, 250c 4,0 27,-3 30,0c 5,5 0,42 0,50c 0,25 8,66 0,90c -2,6 -31,9 -35,5c -9,-9 0,-107 0,-140z" class="c0"/>
<path d="M 25, 400c 29,0 16,5 -5,5z" class="c10"/>
<path d="M 45, 130c -2,2 -3,3 -5,5z" class="c24"/>
<path d="M 45, 140c -2,2 -3,3 -5,5z" class="c23"/>
<path d="M 55, 100c -2,2 -3,3 -5,5z" class="c22"/>
<path d="M 55, 110c -2,2 -3,3 -5,5z" class="c12"/>
<path d="M 55, 120c -2,2 -3,3 -5,5z" class="c4"/>
<path d="M 55, 130c 0,6 -5,28 -5,5z" class="c1"/>
<path d="M 55, 150c -2,2 -3,3 -5,5z" class="c3"/>
<path d="M 55, 160c -2,2 -3,3 -5,5z" class="c10"/>
<path d="M 55, 170c -2,2 -3,3 -5,5z" class="c22"/>
<path d="M 55, 240c -2,2 -3,3 -5,5z" class="c12"/>
<path d="M 55, 400c 9,18 13,14 -5,5z" class="c9"/>
<path d="M 65, 70c 6,-13 13,-13 -5,5z" class="c15"/>
<path d="M 65, 80c 31,0 -11,3 15,-10c 7,-3 -4,15 -20,15z" class="c4"/>
<path d="M 65, 90c 0,11 -1,10 5,20c 1,2 7,3 5,5c -12,12 -15,-12 -15,-15z" class="c1"/>
<path d="M 65, 120c -2,2 -3,3 -5,5z" class="c8"/>
<path d="M 65, 130c -2,2 -3,3 -5,5z" class="c13"/>
<path d="M 65, 140c -2,2 -3,3 -5,5z" class="c14"/>
<path d="M 65, 150c -2,2 -3,3 -5,5z" class="c9"/>
<path d="M 65, 160c 0,6 -5,28 -5,5z" class="c2"/>
<path d="M 65, 180c -2,2 -3,3 -5,5z" class="c15"/>
<path d="M 65, 230c -2,2 -3,3 -5,5z" class="c7"/>
<path d="M 65, 240c -2,2 -3,3 -5,5z" class="c2"/>
<path d="M 65, 250c 0,46 -1,139 -5,135c -9,-9 0,-99 0,-130z" class="c8"/>
<path d="M 65, 390c -2,2 -3,3 -5,5z" class="c7"/>
<path d="M 65, 400c -2,2 -3,3 -5,5z" class="c2"/>
<path d="M 75, 70c -2,2 -3,3 -5,5z" class="c1"/>
<path d="M 75, 90c -2,2 -3,3 -5,5z" class="c10"/>
<path d="M 75, 100c -2,2 -3,3 -5,5z" class="c4"/>
<path d="M 75, 120c 23,0 1,5 -5,5z" class="c18"/>
<path d="M 75, 130c 37,0 -6,-40 15,-50c 8,-4 33,29 40,0c 2,-8 -9,-21 -15,-25c -4,-3 -17,0 -15,-5c 14,-28 21,15 35,10c 14,-5 22,-51 55,-40c 8,3 9,26 20,30c 21,7 12,-36 30,-30c 8,3 9,26 20,30c 9,3 21,-19 35,-10c 39,26 1,41 10,55c 9,13 32,-3 40,5c 8,8 -19,31 -10,45c 18,27 2,-13 20,5c 4,4 -9,9 -10,15c -1,3 2,8 0,10c -4,4 -33,1 -35,-5c -4,-11 0,-30 -15,-35c -18,-6 -4,26 -15,30c -12,4 -22,-25 -35,-5c -9,14 18,37 10,45c -8,8 -31,-19 -45,-10c -22,14 -38,33 -60,0c -11,-17 29,-43 0,-50c -18,-4 -15,5 -25,10c -2,1 -8,-31 -25,-20c -24,16 17,48 15,50c -6,6 -20,-9 -25,-10c -11,-3 -20,-20 -20,-35z" class="c0"/>
<path d="M 75, 160c -2,2 -3,3 -5,5z" class="c23"/>
<path d="M 75, 170c 9,18 13,14 -5,5z" class="c9"/>
<path d="M 75, 180c -2,2 -3,3 -5,5z" class="c1"/>
<path d="M 75, 190c -2,2 -3,3 -5,5z" class="c16"/>
<path d="M 75, 230c -2,2 -3,3 -5,5z" class="c23"/>
<path d="M 75, 240c -2,2 -3,3 -5,5z" class="c6"/>
<path d="M 75, 250c -2,2 -3,3 -5,5z" class="c1"/>
<path d="M 75, 260c 0,34 11,88 0,120c -12,36 -5,-77 -5,-115z" class="c6"/>
<path d="M 75, 390c -2,2 -3,3 -5,5z" class="c4"/>
<path d="M 75, 400c 42,0 168,-12 180,0c 4,4 -91,5 -185,5z" class="c1"/>
<path d="M 75, 410c 40,0 158,-12 170,0c 5,5 -25,5 -25,5c -50,0 -100,0 -150,0z" class="c19"/>
<path d="M 85, 40c -2,2 -3,3 -5,5z" class="c17"/>
<path d="M 85, 50c -2,2 -3,3 -5,5z" class="c9"/>
<path d="M 85, 60c -2,2 -3,3 -5,5z" class="c2"/>
<path d="M 85, 80c -2,2 -3,3 -5,5z" class="c24"/>
<path d="M 85, 100c -2,2 -3,3 -5,5z" class="c23"/>
<path d="M 85, 110c -2,2 -3,3 -5,5z" class="c9"/>
<path d="M 85, 190c -2,2 -3,3 -5,5z" class="c3"/>
<path d="M 85, 200c -2,2 -3,3 -5,5z" class="c23"/>
<path d="M 85, 240c -2,2 -3,3 -5,5z" class="c10"/>
<path d="M 85, 250c -2,2 -3,3 -5,5z" class="c3"/>
<path d="M 85, 260c 16,0 42,21 55,30c 21,14 67,-17 85,10c 16,24 -68,11 -75,15c -8,5 -25,25 -10,35c 12,8 26,-7 35,-10c 23,-8 70,13 90,0c 3,-2 2,-8 5,-10c 12,-8 43,-2 55,-10c 3,-2 2,-8 5,-10c 4,-2 61,-14 65,-10c 1,1 -41,22 -45,25c -11,7 -23,22 -35,30c -7,5 -28,5 -35,10c -6,4 -11,17 -20,20c -29,10 -79,0 -110,0c -11,0 -63,7 -70,0c -12,-12 0,-101 0,-120z" class="c0"/>
<path d="M 85, 390c 38,0 149,-11 160,0c 3,3 -50,5 -165,5z" class="c17"/>
<path d="M 95, 30c -2,2 -3,3 -5,5z" class="c12"/>
<path d="M 95, 40c 6,-13 13,-13 -5,5z" class="c1"/>
<path d="M 95, 50c -2,2 -3,3 -5,5z" class="c3"/>
<path d="M 95, 60c -2,2 -3,3 -5,5z" class="c1"/>
<path d="M 95, 70c -2,2 -3,3 -5,5z" class="c11"/>
<path d="M 95, 180c -2,2 -3,3 -5,5z" class="c23"/>
<path d="M 95, 190c -2,2 -3,3 -5,5z" class="c2"/>
<path d="M 95, 200c -2,2 -3,3 -5,5z" class="c11"/>
<path d="M 95, 240c -2,2 -3,3 -5,5z" class="c12"/>
<path d="M 95, 250c -2,2 -3,3 -5,5z" class="c2"/>
<path d="M 105, 20c -2,2 -3,3 -5,5z" class="c17"/>
<path d="M 105, 40c -2,2 -3,3 -5,5z" class="c11"/>
<path d="M 105, 60c -2,2 -3,3 -5,5z" class="c6"/>
<path d="M 105, 70c -2,2 -3,3 -5,5z" class="c4"/>
<path d="M 105, 80c -2,2 -3,3 -5,5z" class="c24"/>
<path d="M 105, 140c -2,2 -3,3 -5,5z" class="c23"/>
<path d="M 105, 150c -2,2 -3,3 -5,5z" class="c10"/>
<path d="M 105, 160c -2,2 -3,3 -5,5z" class="c15"/>
<path d="M 105, 190c -2,2 -3,3 -5,5z" class="c9"/>
<path d="M 105, 200c -2,2 -3,3 -5,5z" class="c4"/>
<path d="M 105, 240c -2,2 -3,3 -5,5z" class="c16"/>
<path d="M 105, 250c 5,0 23,12 20,15c -2,2 -3,-4 -5,-5c -10,-6 -9,-5 -20,-5z" class="c1"/>
<path d="M 105, 260c -2,2 -3,3 -5,5z" class="c21"/>
<path d="M 115, 20c -2,2 -3,3 -5,5z" class="c9"/>
<path d="M 115, 30c -2,2 -3,3 -5,5z" class="c3"/>
<path d="M 115, 60c -2,2 -3,3 -5,5z" class="c17"/>
<path d="M 115, 70c -2,2 -3,3 -5,5z" class="c1"/>
<path d="M 115, 80c -2,2 -3,3 -5,5z" class="c14"/>
<path d="M 115, 140c -2,2 -3,3 -5,5z" class="c21"/>
<path d="M 115, 150c -2,2 -3,3 -5,5z" class="c4"/>
<path d="M 115, 160c 11,23 26,-4 30,0c 2,2 -4,3 -5,5c -11,17 -14,8 -30,0z" class="c1"/>
<path d="M 115, 170c -2,2 -3,3 -5,5z" class="c9"/>
<path d="M 115, 190c -2,2 -3,3 -5,5z" class="c13"/>
<path d="M 115, 200c -2,2 -3,3 -5,5z" class="c1"/>
<path d="M 115, 240c -2,2 -3,3 -5,5z" class="c22"/>
<path d="M 115, 260c -2,2 -3,3 -5,5z" class="c11"/>
<path d="M 125, 20c -2,2 -3,3 -5,5z" class="c7"/>
<path d="M 125, 30c -2,2 -3,3 -5,5z" class="c6"/>
<path d="M 125, 40c 11,22 16,-4 20,0c 4,4 -5,12 -10,15c -5,3 -10,-7 -15,-10z" class="c18"/>
<path d="M 125, 70c -2,2 -3,3 -5,5z" class="c19"/>
<path d="M 125, 80c -2,2 -3,3 -5,5z" class="c23"/>
<path d="M 125, 160c -2,2 -3,3 -5,5z" class="c12"/>
<path d="M 125, 180c -2,2 -3,3 -5,5z" class="c20"/>
<path d="M 125, 190c -2,2 -3,3 -5,5z" class="c12"/>
<path d="M 125, 200c 18,-37 12,-12 -5,5z" class="c2"/>
<path d="M 125, 250c -2,2 -3,3 -5,5z" class="c11"/>
<path d="M 125, 270c -2,2 -3,3 -5,5z" class="c21"/>
<path d="M 135, 20c -2,2 -3,3 -5,5z" class="c8"/>
<path d="M 135, 30c 1,-2 18,-22 20,-20c 3,3 -20,20 -20,20c -1,1 -5,32 -5,5z" class="c1"/>
<path d="M 135, 150c -2,2 -3,3 -5,5z" class="c22"/>
<path d="M 135, 160c -2,2 -3,3 -5,5z" class="c9"/>
<path d="M 135, 200c 4,7 26,9 20,15c -5,5 -21,-8 -25,-10z" class="c3"/>
<path d="M 135, 210c -2,2 -3,3 -5,5z" class="c23"/>
<path d="M 135, 250c -2,2 -3,3 -5,5z" class="c23"/>
<path d="M 135, 260c -2,2 -3,3 -5,5z" class="c2"/>
<path d="M 135, 270c -2,2 -3,3 -5,5z" class="c8"/>
<path d="M 145, 10c -2,2 -3,3 -5,5z" class="c13"/>
<path d="M 145, 30c -2,2 -3,3 -5,5z" class="c7"/>
<path d="M 145, 150c -2,2 -3,3 -5,5z" class="c10"/>
<path d="M 145, 170c -2,2 -3,3 -5,5z" class="c8"/>
<path d="M 145, 180c -2,2 -3,3 -5,5z" class="c10"/>
<path d="M 145, 190c -2,2 -3,3 -5,5z" class="c7"/>
<path d="M 145, 200c -2,2 -3,3 -5,5z" class="c1"/>
<path d="M 145, 220c -2,2 -3,3 -5,5z" class="c21"/>
<path d="M 145, 260c -2,2 -3,3 -5,5z" class="c14"/>
<path d="M 145, 270c 23,0 1,5 -5,5z" class="c1"/>
<path d="M 145, 280c -2,2 -3,3 -5,5z" class="c19"/>
<path d="M 145, 330c -2,2 -3,3 -5,5z" class="c12"/>
<path d="M 145, 340c -2,2 -3,3 -5,5z" class="c6"/>
<path d="M 155, 0c -2,2 -3,3 -5,5z" class="c19"/>
<path d="M 155, 20c -2,2 -3,3 -5,5z" class="c8"/>
<path d="M 155, 150c 0,6 -5,28 -5,5z" class="c24"/>
<path d="M 155, 200c -2,2 -3,3 -5,5z" class="c19"/>
<path d="M 155, 220c -2,2 -3,3 -5,5z" class="c4"/>
<path d="M 155, 260c -2,2 -3,3 -5,5z" class="c23"/>
<path d="M 155, 280c -2,2 -3,3 -5,5z" class="c14"/>
<path d="M 155, 320c -2,2 -3,3 -5,5z" class="c21"/>
<path d="M 155, 330c -2,2 -3,3 -5,5z" class="c1"/>
<path d="M 155, 340c -2,2 -3,3 -5,5z" class="c11"/>
<path d="M 165, 0c -2,2 -3,3 -5,5z" class="c10"/>
<path d="M 165, 10c -2,2 -3,3 -5,5z" class="c2"/>
<path d="M 165, 20c -2,2 -3,3 -5,5z" class="c22"/>
<path d="M 165, 210c -2,2 -3,3 -5,5z" class="c17"/>
<path d="M 165, 220c -2,2 -3,3 -5,5z" class="c1"/>
<path d="M 165, 230c -2,2 -3,3 -5,5z" class="c15"/>
<path d="M 165, 270c -2,2 -3,3 -5,5z" class="c3"/>
<path d="M 165, 280c -2,2 -3,3 -5,5z" class="c10"/>
<path d="M 165, 320c -2,2 -3,3 -5,5z" class="c11"/>
<path d="M 165, 330c -2,2 -3,3 -5,5z" class="c2"/>
<path d="M 165, 340c -2,2 -3,3 -5,5z" class="c23"/>
<path d="M 175, 0c -2,2 -3,3 -5,5z" class="c4"/>
<path d="M 175, 10c -2,2 -3,3 -5,5z" class="c8"/>
<path d="M 175, 90c -2,2 -3,3 -5,5z" class="c9"/>
<path d="M 175, 100c -2,2 -3,3 -5,5z" class="c10"/>
<path d="M 175, 130c -2,2 -3,3 -5,5z" class="c12"/>
<path d="M 175, 140c -2,2 -3,3 -5,5z" class="c10"/>
<path d="M 175, 220c -2,2 -3,3 -5,5z" class="c3"/>
<path d="M 175, 230c -2,2 -3,3 -5,5z" class="c9"/>
<path d="M 175, 270c 4,0 27,-3 30,0c 4,4 -33,5 -35,5z" class="c5"/>
<path d="M 175, 280c 29,0 16,5 -5,5z" class="c9"/>
<path d="M 175, 320c -2,2 -3,3 -5,5z" class="c6"/>
<path d="M 175, 330c -2,2 -3,3 -5,5z" class="c8"/>
<path d="M 185, 0c -2,2 -3,3 -5,5z" class="c2"/>
<path d="M 185, 10c -2,2 -3,3 -5,5z" class="c11"/>
<path d="M 185, 90c -2,2 -3,3 -5,5z" class="c14"/>
<path d="M 185, 100c -2,2 -3,3 -5,5z" class="c1"/>
<path d="M 185, 110c -2,2 -3,3 -5,5z" class="c15"/>
<path d="M 185, 130c -2,2 -3,3 -5,5z" class="c3"/>
<path d="M 185, 140c -2,2 -3,3 -5,5z" class="c8"/>
<path d="M 185, 220c -2,2 -3,3 -5,5z" class="c5"/>
<path d="M 185, 230c -2,2 -3,3 -5,5z" class="c8"/>
<path d="M 185, 320c -2,2 -3,3 -5,5z" class="c2"/>
<path d="M 185, 330c -2,2 -3,3 -5,5z" class="c11"/>
<path d="M 195, 0c -2,2 -3,3 -5,5z" class="c6"/>
<path d="M 195, 10c -2,2 -3,3 -5,5z" class="c7"/>
<path d="M 195, 100c 0,6 -5,28 -5,5z" class="c6"/>
<path d="M 195, 120c -2,2 -3,3 -5,5z" class="c14"/>
<path d="M 195, 130c 3,-6 0,-15 5,-20c 4,-4 17,0 15,5c -3,6 -16,11 -20,20z" class="c1"/>
<path d="M 195, 140c -2,2 -3,3 -5,5z" class="c15"/>
<path d="M 195, 210c -2,2 -3,3 -5,5z" class="c24"/>
<path d="M 195, 220c 15,0 16,-16 35,-10c 6,2 42,41 30,35c -7,-4 -18,-25 -25,-30c -14,-9 -32,10 -45,10z" class="c1"/>
<path d="M 195, 230c -2,2 -3,3 -5,5z" class="c13"/>
<path d="M 195, 320c 117,0 56,5 -5,5z" class="c1"/>
<path d="M 195, 330c 85,0 40,5 -5,5z" class="c12"/>
<path d="M 205, 0c -2,2 -3,3 -5,5z" class="c13"/>
<path d="M 205, 10c 25,0 15,-4 10,15c -5,19 -1,-3 -15,-10z" class="c1"/>
<path d="M 205, 20c 0,6 -5,28 -5,5z" class="c16"/>
<path d="M 205, 100c -2,2 -3,3 -5,5z" class="c12"/>
<path d="M 205, 130c -2,2 -3,3 -5,5z" class="c7"/>
<path d="M 205, 210c -2,2 -3,3 -5,5z" class="c12"/>
<path d="M 205, 230c -2,2 -3,3 -5,5z" class="c19"/>
<path d="M 205, 280c 6,-13 13,-13 -5,5z" class="c8"/>
<path d="M 215, 0c -2,2 -3,3 -5,5z" class="c22"/>
<path d="M 215, 40c -2,2 -3,3 -5,5z" class="c22"/>
<path d="M 215, 100c -2,2 -3,3 -5,5z" class="c13"/>
<path d="M 215, 120c -2,2 -3,3 -5,5z" class="c13"/>
<path d="M 215, 130c -2,2 -3,3 -5,5z" class="c24"/>
<path d="M 215, 200c -2,2 -3,3 -5,5z" class="c19"/>
<path d="M 215, 220c -2,2 -3,3 -5,5z" class="c10"/>
<path d="M 215, 280c -2,2 -3,3 -5,5z" class="c3"/>
<path d="M 225, 0c -2,2 -3,3 -5,5z" class="c11"/>
<path d="M 225, 20c -2,2 -3,3 -5,5z" class="c14"/>
<path d="M 225, 30c -2,2 -3,3 -5,5z" class="c23"/>
<path d="M 225, 100c 0,6 -5,28 -5,5z" class="c6"/>
<path d="M 225, 200c -2,2 -3,3 -5,5z" class="c18"/>
<path d="M 225, 220c -2,2 -3,3 -5,5z" class="c16"/>
<path d="M 225, 270c -2,2 -3,3 -5,5z" class="c17"/>
<path d="M 225, 280c 9,18 13,14 -5,5z" class="c1"/>
<path d="M 225, 290c -2,2 -3,3 -5,5z" class="c10"/>
<path d="M 235, 0c -2,2 -3,3 -5,5z" class="c4"/>
<path d="M 235, 10c -2,2 -3,3 -5,5z" class="c9"/>
<path d="M 235, 90c -2,2 -3,3 -5,5z" class="c13"/>
<path d="M 235, 100c 6,-13 13,-13 -5,5z" class="c1"/>
<path d="M 235, 110c -2,2 -3,3 -5,5z" class="c15"/>
<path d="M 235, 200c -2,2 -3,3 -5,5z" class="c23"/>
<path d="M 235, 220c -2,2 -3,3 -5,5z" class="c12"/>
<path d="M 235, 280c -2,2 -3,3 -5,5z" class="c14"/>
<path d="M 235, 300c -2,2 -3,3 -5,5z" class="c2"/>
<path d="M 235, 310c -2,2 -3,3 -5,5z" class="c3"/>
<path d="M 245, 0c -2,2 -3,3 -5,5z" class="c3"/>
<path d="M 245, 10c -2,2 -3,3 -5,5z" class="c10"/>
<path d="M 245, 70c -2,2 -3,3 -5,5z" class="c17"/>
<path d="M 245, 80c -2,2 -3,3 -5,5z" class="c6"/>
<path d="M 245, 100c -2,2 -3,3 -5,5z" class="c10"/>
<path d="M 245, 210c -2,2 -3,3 -5,5z" class="c3"/>
<path d="M 245, 230c -2,2 -3,3 -5,5z" class="c9"/>
<path d="M 245, 240c -2,2 -3,3 -5,5z" class="c24"/>
<path d="M 245, 290c -2,2 -3,3 -5,5z" class="c17"/>
<path d="M 245, 300c 0,6 -5,28 -5,5z" class="c10"/>
<path d="M 255, 0c -2,2 -3,3 -5,5z" class="c12"/>
<path d="M 255, 10c -2,2 -3,3 -5,5z" class="c2"/>
<path d="M 255, 20c -2,2 -3,3 -5,5z" class="c16"/>
<path d="M 255, 30c -2,2 -3,3 -5,5z" class="c24"/>
<path d="M 255, 70c 0,6 -5,28 -5,5z" class="c5"/>
<path d="M 255, 90c -2,2 -3,3 -5,5z" class="c15"/>
<path d="M 255, 160c -2,2 -3,3 -5,5z" class="c21"/>
<path d="M 255, 170c -2,2 -3,3 -5,5z" class="c6"/>
<path d="M 255, 180c -2,2 -3,3 -5,5z" class="c19"/>
<path d="M 255, 210c -2,2 -3,3 -5,5z" class="c2"/>
<path d="M 255, 220c -2,2 -3,3 -5,5z" class="c4"/>
<path d="M 255, 240c -2,2 -3,3 -5,5z" class="c7"/>
<path d="M 255, 310c -2,2 -3,3 -5,5z" class="c23"/>
<path d="M 255, 330c -2,2 -3,3 -5,5z" class="c14"/>
<path d="M 255, 390c -2,2 -3,3 -5,5z" class="c14"/>
<path d="M 255, 410c -2,2 -3,3 -5,5z" class="c23"/>
<path d="M 265, 0c -2,2 -3,3 -5,5z" class="c24"/>
<path d="M 265, 10c -2,2 -3,3 -5,5z" class="c7"/>
<path d="M 265, 20c 29,0 16,5 -5,5z" class="c1"/>
<path d="M 265, 30c -2,2 -3,3 -5,5z" class="c2"/>
<path d="M 265, 40c -2,2 -3,3 -5,5z" class="c22"/>
<path d="M 265, 160c -2,2 -3,3 -5,5z" class="c23"/>
<path d="M 265, 170c -2,2 -3,3 -5,5z" class="c5"/>
<path d="M 265, 180c -2,2 -3,3 -5,5z" class="c2"/>
<path d="M 265, 190c -2,2 -3,3 -5,5z" class="c24"/>
<path d="M 265, 200c -2,2 -3,3 -5,5z" class="c22"/>
<path d="M 265, 210c -2,2 -3,3 -5,5z" class="c1"/>
<path d="M 265, 220c 17,-34 -5,35 -5,5z" class="c15"/>
<path d="M 265, 250c -2,2 -3,3 -5,5z" class="c16"/>
<path d="M 265, 310c -2,2 -3,3 -5,5z" class="c15"/>
<path d="M 265, 330c -2,2 -3,3 -5,5z" class="c19"/>
<path d="M 265, 390c -2,2 -3,3 -5,5z" class="c6"/>
<path d="M 265, 400c -2,2 -3,3 -5,5z" class="c4"/>
<path d="M 265, 410c 20,0 68,-39 85,-50c 6,-4 14,-1 20,-5c 5,-3 5,-12 10,-15c 6,-4 14,-1 20,-5c 5,-3 5,-12 10,-15c 7,-3 5,32 5,35c 0,9 6,54 0,60c -10,10 -114,0 -150,0z" class="c0"/>
<path d="M 275, 0c 33,0 131,-9 140,0c 10,10 0,84 0,100c 0,42 12,134 0,170c -1,4 -19,-5 -30,-5c -13,0 -15,7 -25,10c -6,2 -14,-4 -20,0c -3,2 -2,8 -5,10c -8,4 14,-21 15,-25c 4,-18 -5,-15 -10,-25c -2,-5 19,-18 20,-20c 5,-7 5,-28 10,-35c 2,-3 8,-2 10,-5c 11,-17 -1,-81 -10,-95c -10,-15 -9,2 -20,-5c -18,-12 -6,-37 -25,-50c -7,-5 -28,-5 -35,-10c -19,-13 10,-10 -15,-10z" class="c0"/>
<path d="M 275, 10c -2,2 -3,3 -5,5z" class="c17"/>
<path d="M 275, 30c -2,2 -3,3 -5,5z" class="c12"/>
<path d="M 275, 170c -2,2 -3,3 -5,5z" class="c19"/>
<path d="M 275, 180c 31,0 -11,3 15,-10c 1,0 8,18 15,20c 30,7 36,-6 45,-10c 9,-5 2,31 -10,25c -3,-2 -2,-8 -5,-10c -6,-4 -23,2 -30,0c -14,-5 -18,-10 -35,-10z" class="c1"/>
<path d="M 275, 190c -2,2 -3,3 -5,5z" class="c17"/>
<path d="M 275, 200c 9,0 45,10 40,15c -5,5 -14,1 -20,5c -9,6 -5,20 -20,15c -3,-1 7,-17 0,-30z" class="c0"/>
<path d="M 275, 220c -2,2 -3,3 -5,5z" class="c24"/>
<path d="M 275, 240c -2,2 -3,3 -5,5z" class="c4"/>
<path d="M 275, 250c -2,2 -3,3 -5,5z" class="c6"/>
<path d="M 275, 310c -2,2 -3,3 -5,5z" class="c7"/>
<path d="M 275, 320c -2,2 -3,3 -5,5z" class="c4"/>
<path d="M 275, 380c -2,2 -3,3 -5,5z" class="c16"/>
<path d="M 275, 390c -2,2 -3,3 -5,5z" class="c1"/>
<path d="M 275, 400c -2,2 -3,3 -5,5z" class="c15"/>
<path d="M 285, 10c -2,2 -3,3 -5,5z" class="c22"/>
<path d="M 285, 30c -2,2 -3,3 -5,5z" class="c15"/>
<path d="M 285, 170c -2,2 -3,3 -5,5z" class="c14"/>
<path d="M 285, 190c -2,2 -3,3 -5,5z" class="c18"/>
<path d="M 285, 240c -2,2 -3,3 -5,5z" class="c14"/>
<path d="M 285, 250c -2,2 -3,3 -5,5z" class="c1"/>
<path d="M 285, 260c -2,2 -3,3 -5,5z" class="c19"/>
<path d="M 285, 300c -2,2 -3,3 -5,5z" class="c23"/>
<path d="M 285, 310c 23,0 1,5 -5,5z" class="c1"/>
<path d="M 285, 320c -2,2 -3,3 -5,5z" class="c12"/>
<path d="M 285, 370c -2,2 -3,3 -5,5z" class="c24"/>
<path d="M 285, 380c -2,2 -3,3 -5,5z" class="c3"/>
<path d="M 285, 390c -2,2 -3,3 -5,5z" class="c6"/>
<path d="M 295, 20c -2,2 -3,3 -5,5z" class="c3"/>
<path d="M 295, 30c -2,2 -3,3 -5,5z" class="c9"/>
<path d="M 295, 140c -2,2 -3,3 -5,5z" class="c21"/>
<path d="M 295, 150c -2,2 -3,3 -5,5z" class="c2"/>
<path d="M 295, 160c -2,2 -3,3 -5,5z" class="c3"/>
<path d="M 295, 190c -2,2 -3,3 -5,5z" class="c11"/>
<path d="M 295, 230c -2,2 -3,3 -5,5z" class="c20"/>
<path d="M 295, 240c -2,2 -3,3 -5,5z" class="c24"/>
<path d="M 295, 250c -2,2 -3,3 -5,5z" class="c3"/>
<path d="M 295, 260c -2,2 -3,3 -5,5z" class="c6"/>
<path d="M 295, 270c -2,2 -3,3 -5,5z" class="c24"/>
<path d="M 295, 300c -2,2 -3,3 -5,5z" class="c15"/>
<path d="M 295, 320c -2,2 -3,3 -5,5z" class="c19"/>
<path d="M 295, 370c -2,2 -3,3 -5,5z" class="c11"/>
<path d="M 295, 380c 6,-13 13,-13 -5,5z" class="c1"/>
<path d="M 295, 390c -2,2 -3,3 -5,5z" class="c19"/>
<path d="M 305, 20c -2,2 -3,3 -5,5z" class="c14"/>
<path d="M 305, 30c -2,2 -3,3 -5,5z" class="c1"/>
<path d="M 305, 40c -2,2 -3,3 -5,5z" class="c18"/>
<path d="M 305, 150c -2,2 -3,3 -5,5z" class="c14"/>
<path d="M 305, 160c -2,2 -3,3 -5,5z" class="c9"/>
<path d="M 305, 170c -2,2 -3,3 -5,5z" class="c15"/>
<path d="M 305, 180c -2,2 -3,3 -5,5z" class="c10"/>
<path d="M 305, 200c -2,2 -3,3 -5,5z" class="c23"/>
<path d="M 305, 220c -2,2 -3,3 -5,5z" class="c15"/>
<path d="M 305, 230c -2,2 -3,3 -5,5z" class="c1"/>
<path d="M 305, 240c -2,2 -3,3 -5,5z" class="c23"/>
<path d="M 305, 250c -2,2 -3,3 -5,5z" class="c17"/>
<path d="M 305, 260c 4,8 16,18 25,5c 5,-7 -1,-31 5,-25c 6,6 -2,21 -5,25c -11,17 -14,8 -30,0z" class="c1"/>
<path d="M 305, 270c -2,2 -3,3 -5,5z" class="c9"/>
<path d="M 305, 300c -2,2 -3,3 -5,5z" class="c7"/>
<path d="M 305, 310c -2,2 -3,3 -5,5z" class="c4"/>
<path d="M 305, 360c -2,2 -3,3 -5,5z" class="c20"/>
<path d="M 305, 380c -2,2 -3,3 -5,5z" class="c10"/>
<path d="M 315, 30c -2,2 -3,3 -5,5z" class="c4"/>
<path d="M 315, 40c -2,2 -3,3 -5,5z" class="c3"/>
<path d="M 315, 50c -2,2 -3,3 -5,5z" class="c19"/>
<path d="M 315, 80c -2,2 -3,3 -5,5z" class="c15"/>
<path d="M 315, 90c -2,2 -3,3 -5,5z" class="c19"/>
<path d="M 315, 180c -2,2 -3,3 -5,5z" class="c18"/>
<path d="M 315, 200c -2,2 -3,3 -5,5z" class="c16"/>
<path d="M 315, 220c -2,2 -3,3 -5,5z" class="c6"/>
<path d="M 315, 230c 23,0 1,5 -5,5z" class="c3"/>
<path d="M 315, 240c 0,6 -5,28 -5,5z" class="c0"/>
<path d="M 315, 260c -2,2 -3,3 -5,5z" class="c11"/>
<path d="M 315, 280c 0,6 -5,28 -5,5z" class="c23"/>
<path d="M 315, 300c 23,0 1,5 -5,5z" class="c1"/>
<path d="M 315, 310c -2,2 -3,3 -5,5z" class="c12"/>
<path d="M 315, 360c -2,2 -3,3 -5,5z" class="c6"/>
<path d="M 315, 370c -2,2 -3,3 -5,5z" class="c3"/>
<path d="M 315, 380c -2,2 -3,3 -5,5z" class="c23"/>
<path d="M 325, 30c -2,2 -3,3 -5,5z" class="c22"/>
<path d="M 325, 40c -2,2 -3,3 -5,5z" class="c6"/>
<path d="M 325, 50c -2,2 -3,3 -5,5z" class="c2"/>
<path d="M 325, 60c -2,2 -3,3 -5,5z" class="c10"/>
<path d="M 325, 70c -2,2 -3,3 -5,5z" class="c17"/>
<path d="M 325, 80c 4,-8 13,-14 20,0c 4,7 -24,5 -25,5z" class="c1"/>
<path d="M 325, 90c -2,2 -3,3 -5,5z" class="c13"/>
<path d="M 325, 180c -2,2 -3,3 -5,5z" class="c22"/>
<path d="M 325, 200c -2,2 -3,3 -5,5z" class="c15"/>
<path d="M 325, 210c -2,2 -3,3 -5,5z" class="c18"/>
<path d="M 325, 220c -2,2 -3,3 -5,5z" class="c1"/>
<path d="M 325, 240c -2,2 -3,3 -5,5z" class="c14"/>
<path d="M 325, 250c -2,2 -3,3 -5,5z" class="c22"/>
<path d="M 325, 260c -2,2 -3,3 -5,5z" class="c10"/>
<path d="M 325, 280c -2,2 -3,3 -5,5z" class="c24"/>
<path d="M 325, 290c -2,2 -3,3 -5,5z" class="c15"/>
<path d="M 325, 310c -2,2 -3,3 -5,5z" class="c19"/>
<path d="M 325, 350c -2,2 -3,3 -5,5z" class="c15"/>
<path d="M 325, 360c -2,2 -3,3 -5,5z" class="c1"/>
<path d="M 325, 370c -2,2 -3,3 -5,5z" class="c15"/>
<path d="M 335, 40c -2,2 -3,3 -5,5z" class="c24"/>
<path d="M 335, 50c -2,2 -3,3 -5,5z" class="c11"/>
<path d="M 335, 60c -2,2 -3,3 -5,5z" class="c3"/>
<path d="M 335, 90c -2,2 -3,3 -5,5z" class="c19"/>
<path d="M 335, 180c -2,2 -3,3 -5,5z" class="c17"/>
<path d="M 335, 200c -2,2 -3,3 -5,5z" class="c13"/>
<path d="M 335, 210c -2,2 -3,3 -5,5z" class="c3"/>
<path d="M 335, 220c 6,-13 13,-13 -5,5z" class="c4"/>
<path d="M 335, 230c -2,2 -3,3 -5,5z" class="c7"/>
<path d="M 335, 270c -2,2 -3,3 -5,5z" class="c14"/>
<path d="M 335, 290c -2,2 -3,3 -5,5z" class="c7"/>
<path d="M 335, 300c -2,2 -3,3 -5,5z" class="c4"/>
<path d="M 335, 340c -2,2 -3,3 -5,5z" class="c23"/>
<path d="M 335, 350c -2,2 -3,3 -5,5z" class="c3"/>
<path d="M 335, 360c -2,2 -3,3 -5,5z" class="c6"/>
<path d="M 345, 70c -2,2 -3,3 -5,5z" class="c15"/>
<path d="M 345, 90c -2,2 -3,3 -5,5z" class="c17"/>
<path d="M 345, 120c -2,2 -3,3 -5,5z" class="c20"/>
<path d="M 345, 130c -2,2 -3,3 -5,5z" class="c7"/>
<path d="M 345, 140c -2,2 -3,3 -5,5z" class="c22"/>
<path d="M 345, 180c -2,2 -3,3 -5,5z" class="c7"/>
<path d="M 345, 220c -2,2 -3,3 -5,5z" class="c22"/>
<path d="M 345, 240c -2,2 -3,3 -5,5z" class="c19"/>
<path d="M 345, 250c -2,2 -3,3 -5,5z" class="c15"/>
<path d="M 345, 260c -2,2 -3,3 -5,5z" class="c19"/>
<path d="M 345, 280c -2,2 -3,3 -5,5z" class="c23"/>
<path d="M 345, 290c 23,0 1,5 -5,5z" class="c1"/>
<path d="M 345, 300c -2,2 -3,3 -5,5z" class="c12"/>
<path d="M 345, 340c -2,2 -3,3 -5,5z" class="c10"/>
<path d="M 345, 350c 6,-13 13,-13 -5,5z" class="c1"/>
<path d="M 345, 360c -2,2 -3,3 -5,5z" class="c20"/>
<path d="M 355, 80c -2,2 -3,3 -5,5z" class="c5"/>
<path d="M 355, 90c -2,2 -3,3 -5,5z" class="c2"/>
<path d="M 355, 100c -2,2 -3,3 -5,5z" class="c13"/>
<path d="M 355, 110c -2,2 -3,3 -5,5z" class="c14"/>
<path d="M 355, 120c 0,6 -5,28 -5,5z" class="c3"/>
<path d="M 355, 140c -2,2 -3,3 -5,5z" class="c23"/>
<path d="M 355, 160c -2,2 -3,3 -5,5z" class="c23"/>
<path d="M 355, 170c -2,2 -3,3 -5,5z" class="c9"/>
<path d="M 355, 200c -2,2 -3,3 -5,5z" class="c8"/>
<path d="M 355, 210c -2,2 -3,3 -5,5z" class="c23"/>
<path d="M 355, 280c -2,2 -3,3 -5,5z" class="c15"/>
<path d="M 355, 300c -2,2 -3,3 -5,5z" class="c19"/>
<path d="M 355, 330c -2,2 -3,3 -5,5z" class="c19"/>
<path d="M 355, 350c -2,2 -3,3 -5,5z" class="c11"/>
<path d="M 365, 80c -2,2 -3,3 -5,5z" class="c23"/>
<path d="M 365, 90c -2,2 -3,3 -5,5z" class="c7"/>
<path d="M 365, 100c 0,2 -1,39 -5,35c -3,-3 0,-26 0,-30z" class="c1"/>
<path d="M 365, 140c -2,2 -3,3 -5,5z" class="c4"/>
<path d="M 365, 150c -2,2 -3,3 -5,5z" class="c5"/>
<path d="M 365, 160c -2,2 -3,3 -5,5z" class="c1"/>
<path d="M 365, 170c -2,2 -3,3 -5,5z" class="c2"/>
<path d="M 365, 180c -2,2 -3,3 -5,5z" class="c12"/>
<path d="M 365, 190c -2,2 -3,3 -5,5z" class="c21"/>
<path d="M 365, 280c -2,2 -3,3 -5,5z" class="c7"/>
<path d="M 365, 290c -2,2 -3,3 -5,5z" class="c4"/>
<path d="M 365, 330c -2,2 -3,3 -5,5z" class="c6"/>
<path d="M 365, 340c -2,2 -3,3 -5,5z" class="c3"/>
<path d="M 365, 350c -2,2 -3,3 -5,5z" class="c24"/>
<path d="M 375, 100c 0,6 -5,28 -5,5z" class="c23"/>
<path d="M 375, 120c -2,2 -3,3 -5,5z" class="c24"/>
<path d="M 375, 130c -2,2 -3,3 -5,5z" class="c15"/>
<path d="M 375, 140c -2,2 -3,3 -5,5z" class="c10"/>
<path d="M 375, 150c -2,2 -3,3 -5,5z" class="c9"/>
<path d="M 375, 160c -2,2 -3,3 -5,5z" class="c14"/>
<path d="M 375, 170c -2,2 -3,3 -5,5z" class="c22"/>
<path d="M 375, 270c -2,2 -3,3 -5,5z" class="c23"/>
<path d="M 375, 280c 29,0 16,5 -5,5z" class="c1"/>
<path d="M 375, 290c -2,2 -3,3 -5,5z" class="c12"/>
<path d="M 375, 320c -2,2 -3,3 -5,5z" class="c14"/>
<path d="M 375, 330c -2,2 -3,3 -5,5z" class="c1"/>
<path d="M 375, 340c -2,2 -3,3 -5,5z" class="c16"/>
<path d="M 385, 270c -2,2 -3,3 -5,5z" class="c16"/>
<path d="M 385, 290c -2,2 -3,3 -5,5z" class="c19"/>
<path d="M 385, 310c -2,2 -3,3 -5,5z" class="c23"/>
<path d="M 385, 320c -2,2 -3,3 -5,5z" class="c2"/>
<path d="M 385, 330c -2,2 -3,3 -5,5z" class="c7"/>
<path d="M 395, 270c -2,2 -3,3 -5,5z" class="c15"/>
<path d="M 395, 290c -2,2 -3,3 -5,5z" class="c22"/>
<path d="M 395, 310c -2,2 -3,3 -5,5z" class="c9"/>
<path d="M 395, 320c 6,-13 13,-13 -5,5z" class="c1"/>
<path d="M 395, 330c -2,2 -3,3 -5,5z" class="c21"/>
<path d="M 405, 270c -2,2 -3,3 -5,5z" class="c22"/>
<path d="M 405, 280c -2,2 -3,3 -5,5z" class="c2"/>
<path d="M 405, 290c -2,2 -3,3 -5,5z" class="c4"/>
<path d="M 405, 300c -2,2 -3,3 -5,5z" class="c6"/>
<path d="M 405, 320c 6,-13 13,-13 -5,5z" class="c13"/>
<path d="M 415, 280c -2,2 -3,3 -5,5z" class="c19"/>
<path d="M 415, 290c -2,2 -3,3 -5,5z" class="c7"/>
<path d="M 415, 300c -2,2 -3,3 -5,5z" class="c5"/>
</g>
</svg>