<?xml version="1.0" encoding="UTF-8" standalone="no"?> <svg xmlns="http://www.w3.org/2000/svg" viewBox="0 0 48 48"><defs><style>.cls-1{fill:#eaeff0;}.cls-2{fill:#d2d6d6;}.cls-3{fill:#f7f9f9;}.cls-4{fill:#fac100;}.cls-5{fill:#c6512b;}.cls-6{fill:#e67244;}.cls-7{fill:#e64600;}.cls-8{fill:#f87600;}</style></defs><title>Breakfast</title><g id="Breakfast"><circle class="cls-1" cx="24" cy="24" r="22"/><circle class="cls-2" cx="24" cy="24" r="15"/><path class="cls-3" d="M27.81,12.6a4.5,4.5,0,0,0-.225-1.57,4.385,4.385,0,0,0-6.769-2.143,1.863,1.863,0,0,1-1.526.306,3.713,3.713,0,0,0-.817-.1A3.838,3.838,0,0,0,14.8,11.759a2.091,2.091,0,0,1-1.136,1.322,8.542,8.542,0,0,0-5.048,9.356,8.375,8.375,0,0,0,7.095,6.926,8.5,8.5,0,0,0,7.046-2.127,2.018,2.018,0,0,1,1.46-.483c1.626.07,3.437-.545,5.686-3.387a5.184,5.184,0,0,0,1.165-3.044A6.575,6.575,0,0,0,29,15.361,3.611,3.611,0,0,1,27.81,12.6Z"/><circle class="cls-4" cx="17" cy="20" r="4"/><path class="cls-5" d="M30.362,42.56a2,2,0,0,1-.955-.342l-6.424-4.394a2,2,0,0,1,.409-3.516h0l10.844-4.187a2,2,0,0,1,2.5,2.781l-4.421,8.582a2,2,0,0,1-1.951,1.076Z"/><path class="cls-6" d="M26.935,40.446a2.006,2.006,0,0,1-.982-.257L19.17,36.371a2,2,0,0,1,.1-3.538h0l10.437-5.116a2,2,0,0,1,2.732,2.553L28.785,39.2a2,2,0,0,1-1.85,1.242Z"/><rect class="cls-7" x="34" y="17" width="4" height="6" rx="2"/><rect class="cls-8" x="35" y="21" width="6" height="4" rx="2" transform="translate(2.209 49.306) rotate(-67.5)"/></g></svg>