<?xml version="1.0" encoding="utf-8"?>
<!-- Generator: Adobe Illustrator 24.0.2, SVG Export Plug-In . SVG Version: 6.00 Build 0)  -->
<svg version="1.1" id="Layer_1" xmlns="http://www.w3.org/2000/svg" xmlns:xlink="http://www.w3.org/1999/xlink" x="0px" y="0px"
	 viewBox="0 0 512 512" style="enable-background:new 0 0 512 512;" xml:space="preserve">
<style type="text/css">
	.st0{fill:#B34F68;}
</style>
<path class="st0" d="M452.4544,67.3151l4.825-17.5727L306.9104,8.4566l-1.3427-0.3797L284.7199,81.824H54.3064l30.8501,387.295
	c0.2291,18.9096,15.6832,34.2242,34.6461,34.2242h179.1109c18.9386,0,34.3773-15.2744,34.6453-34.1505l36.249-387.3687h-66.1508
	l14.5234-51.3753L452.4544,67.3151z M75.6228,173.6984l-5.7101-74.1265h209.79l-20.955,74.1265H75.6228z M201.1364,235.3647
	l-14.5539,41.8297l-41.8298-14.5536l14.5539-41.8297L201.1364,235.3647z M164.9816,415.6105l-44.7189-53.0204l53.0207-44.7192
	l44.7189,53.0207L164.9816,415.6105z M282.2686,352.2726l-65.5093-22.7925l22.7928-65.5096l65.509,22.7928L282.2686,352.2726z
	 M354.2253,99.5719l-6.7078,74.1265h-69.8326l20.955-74.1265H354.2253z"/>
</svg>
