<?xml version="1.0" encoding="utf-8"?>
<!-- Generator: Adobe Illustrator 24.3.0, SVG Export Plug-In . SVG Version: 6.00 Build 0)  -->
<svg version="1.1" id="Layer_1" xmlns="http://www.w3.org/2000/svg" xmlns:xlink="http://www.w3.org/1999/xlink" x="0px" y="0px"
	 viewBox="0 0 26 26" style="enable-background:new 0 0 26 26;" xml:space="preserve">
<g id="Group_1613" transform="translate(-16 -50)">
	<g id="_2311908" transform="translate(16 52)">
		<path id="Path_3832" d="M12.5,24c-0.4,0-0.7-0.3-0.7-0.8c0,0,0-0.1,0-0.1l0.5-3c0-0.2,0.1-0.3,0.2-0.4l7.4-7.4
			c0.3-0.3,0.6-0.5,1-0.6c0.5-0.1,1,0.1,1.3,0.4l1.2,1.2c0.7,0.7,0.7,1.8,0,2.5l-7.4,7.4c-0.1,0.1-0.2,0.2-0.4,0.2l-3,0.5
			C12.6,24,12.6,24,12.5,24z M15.5,22.7L15.5,22.7L15.5,22.7z M13.8,20.6l-0.3,1.7l1.7-0.3l7.3-7.3c0.1-0.1,0.1-0.3,0-0.4l-1.2-1.2
			c0,0-0.1,0.1-0.2,0.2L13.8,20.6z"/>
		<path id="Path_3833" d="M10,21H2.8C1.2,21,0,19.8,0,18.2V4.7C0,3.2,1.2,2,2.8,2h11.5C15.8,2,17,3.2,17,4.7v8.1
			c0,0.4-0.3,0.8-0.8,0.8s-0.8-0.3-0.8-0.8V4.7c0-0.7-0.6-1.2-1.2-1.2H2.8c-0.7,0-1.2,0.6-1.2,1.2v13.5c0,0.7,0.6,1.2,1.2,1.2H10
			c0.4,0,0.8,0.3,0.8,0.8S10.4,21,10,21z"/>
		<path id="Path_3834" d="M3.8,5C3.3,5,3,4.7,3,4.2V0.7C3,0.3,3.3,0,3.8,0s0.8,0.3,0.8,0.8v3.5C4.5,4.7,4.2,5,3.8,5z"/>
		<path id="Path_3835" d="M8.5,5C8.1,5,7.8,4.7,7.8,4.2V0.7C7.8,0.3,8.1,0,8.5,0s0.8,0.3,0.8,0.8v3.5C9.2,4.7,8.9,5,8.5,5z"/>
		<path id="Path_3836" d="M13.2,5c-0.4,0-0.8-0.3-0.8-0.8V0.7c0-0.4,0.3-0.8,0.8-0.8S14,0.3,14,0.7v3.5C14,4.7,13.7,5,13.2,5z"/>
		<path id="Path_3837" d="M11.2,13.5H3.8c-0.4,0-0.8-0.3-0.8-0.8S3.3,12,3.8,12h7.5c0.4,0,0.8,0.3,0.8,0.8S11.7,13.5,11.2,13.5z"/>
		<path id="Path_3838" d="M8.2,9.5H3.8C3.3,9.5,3,9.2,3,8.7S3.3,8,3.8,8h4.5C8.7,8,9,8.3,9,8.7S8.7,9.5,8.2,9.5z"/>
	</g>
</g>
</svg>
